<svg x="0px" y="0px" viewBox="0 0 24 24" enable-background="new 0 0 24 24" fill="currentColor" xml:space="preserve">
    <path
        d="M23.999,11.786c0-1.576-1.294-2.858-2.885-2.858c-0.689,0-1.321,0.241-1.817,0.641 c-1.759-1.095-3.991-1.755-6.383-1.895l1.248-3.91l3.43,0.8c0.09,1.237,1.134,2.217,2.405,2.217c1.33,0,2.412-1.072,2.412-2.391 c0-1.318-1.082-2.39-2.412-2.39c-0.93,0-1.739,0.525-2.141,1.291l-3.985-0.93c-0.334-0.078-0.671,0.112-0.775,0.436L11.547,7.65 C8.969,7.712,6.546,8.375,4.658,9.534c-0.49-0.38-1.105-0.607-1.774-0.607C1.293,8.927,0,10.209,0,11.785 c0,0.974,0.495,1.836,1.249,2.351c-0.031,0.227-0.048,0.455-0.048,0.686c0,1.97,1.156,3.803,3.254,5.16 C6.468,21.283,9.13,22,11.952,22s5.485-0.716,7.496-2.018c2.099-1.357,3.254-3.19,3.254-5.16c0-0.21-0.014-0.419-0.041-0.626 C23.464,13.689,23.999,12.798,23.999,11.786 M19.997,3.299c0.607,0,1.102,0.49,1.102,1.091c0,0.602-0.494,1.092-1.102,1.092 s-1.102-0.49-1.102-1.092C18.896,3.789,19.389,3.299,19.997,3.299 M6.805,13.554c0-0.888,0.752-1.633,1.648-1.633 c0.897,0,1.625,0.745,1.625,1.633c0,0.889-0.728,1.61-1.625,1.61C7.557,15.163,6.805,14.442,6.805,13.554 M15.951,18.288 c-0.836,0.827-2.124,1.229-3.939,1.229c-0.004,0-0.008-0.001-0.013-0.001c-0.004,0-0.008,0.001-0.013,0.001 c-1.815,0-3.103-0.402-3.938-1.229c-0.256-0.254-0.256-0.665,0-0.919c0.256-0.253,0.671-0.253,0.927,0 c0.576,0.571,1.561,0.849,3.01,0.849c0.005,0,0.009,0.001,0.013,0.001c0.005,0,0.009-0.001,0.013-0.001 c1.45,0,2.435-0.278,3.012-0.849c0.256-0.254,0.671-0.253,0.927,0C16.206,17.623,16.206,18.034,15.951,18.288 M15.569,15.163 c-0.897,0-1.651-0.721-1.651-1.61s0.754-1.633,1.651-1.633s1.625,0.745,1.625,1.633C17.193,14.442,16.466,15.163,15.569,15.163">
    </path>
</svg>